<?xml version="1.0" standalone="no" ?>
<!DOCTYPE svg PUBLIC "-//W3C//DTD SVG 1.1//EN" "http://www.w3.org/Graphics/SVG/1.1/DTD/svg11.dtd">
<svg width="300px" height="300px" xmlns="http://www.w3.org/2000/svg" version="1.1" >
	<rect x="75" y="175" width="50" height="50" fill="rgb(252,252,252)" />
	<text x="88" y="205" fill="rgb(124,124,124)" font-size="12" font-family="Verdana" >0.01</text>
	<rect x="75" y="125" width="50" height="50" fill="rgb(254,254,254)" />
	<text x="88" y="155" fill="rgb(126,126,126)" font-size="12" font-family="Verdana" >0.00</text>
	<rect x="75" y="75" width="50" height="50" fill="rgb(254,254,254)" />
	<text x="88" y="105" fill="rgb(126,126,126)" font-size="12" font-family="Verdana" >0.00</text>
	<rect x="125" y="175" width="50" height="50" fill="rgb(231,231,231)" />
	<text x="138" y="205" fill="rgb(103,103,103)" font-size="12" font-family="Verdana" >0.09</text>
	<rect x="125" y="125" width="50" height="50" fill="rgb(248,248,248)" />
	<text x="138" y="155" fill="rgb(120,120,120)" font-size="12" font-family="Verdana" >0.02</text>
	<rect x="125" y="75" width="50" height="50" fill="rgb(251,251,251)" />
	<text x="138" y="105" fill="rgb(123,123,123)" font-size="12" font-family="Verdana" >0.01</text>
	<rect x="175" y="175" width="50" height="50" fill="rgb(180,180,180)" />
	<text x="188" y="205" fill="rgb(52,52,52)" font-size="12" font-family="Verdana" >0.29</text>
	<rect x="175" y="125" width="50" height="50" fill="rgb(237,237,237)" />
	<text x="188" y="155" fill="rgb(109,109,109)" font-size="12" font-family="Verdana" >0.07</text>
	<rect x="175" y="75" width="50" height="50" fill="rgb(245,245,245)" />
	<text x="188" y="105" fill="rgb(117,117,117)" font-size="12" font-family="Verdana" >0.04</text>
	<rect x="0" y="270" width="30" height="30" fill="rgb(255,255,255)" />
	<text x="3" y="290" fill="rgb(127,127,127)" font-size="12" font-family="Verdana" >0.00</text>
	<rect x="30" y="270" width="30" height="30" fill="rgb(203,203,203)" />
	<text x="33" y="290" fill="rgb(75,75,75)" font-size="12" font-family="Verdana" >0.20</text>
	<rect x="60" y="270" width="30" height="30" fill="rgb(152,152,152)" />
	<text x="63" y="290" fill="rgb(24,24,24)" font-size="12" font-family="Verdana" >0.40</text>
	<rect x="90" y="270" width="30" height="30" fill="rgb(101,101,101)" />
	<text x="93" y="290" fill="rgb(229,229,229)" font-size="12" font-family="Verdana" >0.60</text>
	<rect x="120" y="270" width="30" height="30" fill="rgb(50,50,50)" />
	<text x="123" y="290" fill="rgb(178,178,178)" font-size="12" font-family="Verdana" >0.80</text>
	<line x1="75" y1="225" x2="225" y2="225" stroke-width="1" stroke="rgb(0,0,0)" />
	<line x1="75" y1="225" x2="75" y2="75" stroke-width="1" stroke="rgb(0,0,0)" />
	<polygon points="245,225 225,220 225,230 " fill="rgb(0,0,0)" />
	<polygon points="75,55 80,75 70,75 " fill="rgb(0,0,0)" />
	<text x="88" y="242.5" fill="rgb(0,0,0)" font-size="12" font-family="Verdana" >0.30</text>
	<text x="138" y="242.5" fill="rgb(0,0,0)" font-size="12" font-family="Verdana" >0.60</text>
	<text x="188" y="242.5" fill="rgb(0,0,0)" font-size="12" font-family="Verdana" >0.90</text>
	<text x="238" y="242.5" fill="rgb(0,0,0)" font-size="12" font-family="Verdana" >u</text>
	<text x="50.5" y="205" fill="rgb(0,0,0)" font-size="12" font-family="Verdana" >1</text>
	<text x="50.5" y="155" fill="rgb(0,0,0)" font-size="12" font-family="Verdana" >5</text>
	<text x="50.5" y="105" fill="rgb(0,0,0)" font-size="12" font-family="Verdana" >10</text>
	<text x="50.5" y="55" fill="rgb(0,0,0)" font-size="12" font-family="Verdana" >d</text>
</svg>
