<?xml version="1.0" standalone="no" ?>
<!DOCTYPE svg PUBLIC "-//W3C//DTD SVG 1.1//EN" "http://www.w3.org/Graphics/SVG/1.1/DTD/svg11.dtd">
<svg width="1837px" height="162px" xmlns="http://www.w3.org/2000/svg" version="1.1" >
	<line x1="12" y1="150" x2="12" y2="12" stroke-width="2" stroke="rgb(0,0,0)" />
	<line x1="12" y1="150" x2="1825" y2="150" stroke-width="2" stroke="rgb(0,0,0)" />
	<polygon points="1825,150 1819,156 1819,144 " fill="rgb(0,0,0)" />
	<text x="9" y="160" fill="rgb(0,0,0)" font-size="12" font-family="Verdana" >0</text>
	<text x="150" y="160" fill="rgb(0,0,0)" font-size="12" font-family="Verdana" >10</text>
	<text x="300" y="160" fill="rgb(0,0,0)" font-size="12" font-family="Verdana" >20</text>
	<text x="450" y="160" fill="rgb(0,0,0)" font-size="12" font-family="Verdana" >30</text>
	<text x="600" y="160" fill="rgb(0,0,0)" font-size="12" font-family="Verdana" >40</text>
	<text x="750" y="160" fill="rgb(0,0,0)" font-size="12" font-family="Verdana" >50</text>
	<text x="900" y="160" fill="rgb(0,0,0)" font-size="12" font-family="Verdana" >60</text>
	<text x="1050" y="160" fill="rgb(0,0,0)" font-size="12" font-family="Verdana" >70</text>
	<text x="1200" y="160" fill="rgb(0,0,0)" font-size="12" font-family="Verdana" >80</text>
	<text x="1350" y="160" fill="rgb(0,0,0)" font-size="12" font-family="Verdana" >90</text>
	<text x="1500" y="160" fill="rgb(0,0,0)" font-size="12" font-family="Verdana" >100</text>
	<text x="1650" y="160" fill="rgb(0,0,0)" font-size="12" font-family="Verdana" >110</text>
	<text x="1800" y="160" fill="rgb(0,0,0)" font-size="12" font-family="Verdana" >120</text>
	<line x1="12" y1="137" x2="1825" y2="137" stroke-width="1" stroke="rgb(0,0,0)" />
	<text x="0" y="112" fill="rgb(0,0,0)" font-size="12" font-family="Verdana" >t0</text>
	<line x1="12" y1="87" x2="1825" y2="87" stroke-width="1" stroke="rgb(0,0,0)" />
	<line x1="12" y1="62" x2="1825" y2="62" stroke-width="1" stroke="rgb(0,0,0)" />
	<text x="0" y="37" fill="rgb(0,0,0)" font-size="12" font-family="Verdana" >t1</text>
	<line x1="12" y1="12" x2="1825" y2="12" stroke-width="1" stroke="rgb(0,0,0)" />
	<line x1="12" y1="112" x2="12" y2="87" stroke-width="2" stroke="rgb(0,0,0)" />
	<polygon points="12,112 15,105 9,105 " fill="rgb(0,0,0)" />
	<circle cx="237" cy="99" r="6" fill="transparent" stroke-width="1" stroke="rgb(0,0,0)" />
	<rect x="12" y="112" width="15" height="25" fill="rgb(0,0,0)" stroke-width="1" stroke="rgb(255,255,255)" />
	<rect x="27" y="112" width="15" height="25" fill="rgb(0,0,0)" stroke-width="1" stroke="rgb(255,255,255)" />
	<rect x="42" y="112" width="15" height="25" fill="rgb(0,0,0)" stroke-width="1" stroke="rgb(255,255,255)" />
	<circle cx="87" cy="24" r="6" fill="transparent" stroke-width="1" stroke="rgb(0,0,0)" />
	<rect x="57" y="37" width="15" height="25" fill="rgb(0,0,0)" stroke-width="1" stroke="rgb(255,255,255)" />
	<rect x="72" y="37" width="15" height="25" fill="rgb(0,0,0)" stroke-width="1" stroke="rgb(255,255,255)" />
	<rect x="87" y="37" width="15" height="25" fill="rgb(0,0,0)" stroke-width="1" stroke="rgb(255,255,255)" />
	<line x1="57" y1="37" x2="57" y2="12" stroke-width="2" stroke="rgb(0,0,0)" />
	<polygon points="57,37 60,30 54,30 " fill="rgb(0,0,0)" />
</svg>
