<?xml version="1.0" standalone="no" ?>
<!DOCTYPE svg PUBLIC "-//W3C//DTD SVG 1.1//EN" "http://www.w3.org/Graphics/SVG/1.1/DTD/svg11.dtd">
<svg width="1545px" height="170px" xmlns="http://www.w3.org/2000/svg" version="1.1" >
	<text x="17" y="168" fill="rgb(0,0,0)" font-size="12" font-family="Verdana" >0</text>
	<text x="162" y="168" fill="rgb(0,0,0)" font-size="12" font-family="Verdana" >10</text>
	<text x="312" y="168" fill="rgb(0,0,0)" font-size="12" font-family="Verdana" >20</text>
	<text x="462" y="168" fill="rgb(0,0,0)" font-size="12" font-family="Verdana" >30</text>
	<text x="612" y="168" fill="rgb(0,0,0)" font-size="12" font-family="Verdana" >40</text>
	<text x="762" y="168" fill="rgb(0,0,0)" font-size="12" font-family="Verdana" >50</text>
	<text x="912" y="168" fill="rgb(0,0,0)" font-size="12" font-family="Verdana" >60</text>
	<text x="1062" y="168" fill="rgb(0,0,0)" font-size="12" font-family="Verdana" >70</text>
	<text x="1212" y="168" fill="rgb(0,0,0)" font-size="12" font-family="Verdana" >80</text>
	<text x="1362" y="168" fill="rgb(0,0,0)" font-size="12" font-family="Verdana" >90</text>
	<text x="1507" y="168" fill="rgb(0,0,0)" font-size="12" font-family="Verdana" >100</text>
	<text x="0" y="137" fill="rgb(0,0,0)" font-size="12" font-family="Verdana" >t0</text>
	<text x="0" y="62" fill="rgb(0,0,0)" font-size="12" font-family="Verdana" >t1</text>
	<line x1="20" y1="150" x2="20" y2="20" stroke-width="1" stroke="rgb(0,0,0)" stroke-dasharray="1,3" />
	<line x1="35" y1="150" x2="35" y2="20" stroke-width="1" stroke="rgb(0,0,0)" stroke-dasharray="1,3" />
	<line x1="50" y1="150" x2="50" y2="20" stroke-width="1" stroke="rgb(0,0,0)" stroke-dasharray="1,3" />
	<line x1="65" y1="150" x2="65" y2="20" stroke-width="1" stroke="rgb(0,0,0)" stroke-dasharray="1,3" />
	<line x1="80" y1="150" x2="80" y2="20" stroke-width="1" stroke="rgb(0,0,0)" stroke-dasharray="1,3" />
	<line x1="95" y1="150" x2="95" y2="20" stroke-width="1" stroke="rgb(0,0,0)" stroke-dasharray="1,3" />
	<line x1="110" y1="150" x2="110" y2="20" stroke-width="1" stroke="rgb(0,0,0)" stroke-dasharray="1,3" />
	<line x1="125" y1="150" x2="125" y2="20" stroke-width="1" stroke="rgb(0,0,0)" stroke-dasharray="1,3" />
	<line x1="140" y1="150" x2="140" y2="20" stroke-width="1" stroke="rgb(0,0,0)" stroke-dasharray="1,3" />
	<line x1="155" y1="150" x2="155" y2="20" stroke-width="1" stroke="rgb(0,0,0)" stroke-dasharray="1,3" />
	<line x1="170" y1="150" x2="170" y2="20" stroke-width="1" stroke="rgb(0,0,0)" stroke-dasharray="1,3" />
	<line x1="185" y1="150" x2="185" y2="20" stroke-width="1" stroke="rgb(0,0,0)" stroke-dasharray="1,3" />
	<line x1="200" y1="150" x2="200" y2="20" stroke-width="1" stroke="rgb(0,0,0)" stroke-dasharray="1,3" />
	<line x1="215" y1="150" x2="215" y2="20" stroke-width="1" stroke="rgb(0,0,0)" stroke-dasharray="1,3" />
	<line x1="230" y1="150" x2="230" y2="20" stroke-width="1" stroke="rgb(0,0,0)" stroke-dasharray="1,3" />
	<line x1="245" y1="150" x2="245" y2="20" stroke-width="1" stroke="rgb(0,0,0)" stroke-dasharray="1,3" />
	<line x1="260" y1="150" x2="260" y2="20" stroke-width="1" stroke="rgb(0,0,0)" stroke-dasharray="1,3" />
	<line x1="275" y1="150" x2="275" y2="20" stroke-width="1" stroke="rgb(0,0,0)" stroke-dasharray="1,3" />
	<line x1="290" y1="150" x2="290" y2="20" stroke-width="1" stroke="rgb(0,0,0)" stroke-dasharray="1,3" />
	<line x1="305" y1="150" x2="305" y2="20" stroke-width="1" stroke="rgb(0,0,0)" stroke-dasharray="1,3" />
	<line x1="320" y1="150" x2="320" y2="20" stroke-width="1" stroke="rgb(0,0,0)" stroke-dasharray="1,3" />
	<line x1="335" y1="150" x2="335" y2="20" stroke-width="1" stroke="rgb(0,0,0)" stroke-dasharray="1,3" />
	<line x1="350" y1="150" x2="350" y2="20" stroke-width="1" stroke="rgb(0,0,0)" stroke-dasharray="1,3" />
	<line x1="365" y1="150" x2="365" y2="20" stroke-width="1" stroke="rgb(0,0,0)" stroke-dasharray="1,3" />
	<line x1="380" y1="150" x2="380" y2="20" stroke-width="1" stroke="rgb(0,0,0)" stroke-dasharray="1,3" />
	<line x1="395" y1="150" x2="395" y2="20" stroke-width="1" stroke="rgb(0,0,0)" stroke-dasharray="1,3" />
	<line x1="410" y1="150" x2="410" y2="20" stroke-width="1" stroke="rgb(0,0,0)" stroke-dasharray="1,3" />
	<line x1="425" y1="150" x2="425" y2="20" stroke-width="1" stroke="rgb(0,0,0)" stroke-dasharray="1,3" />
	<line x1="440" y1="150" x2="440" y2="20" stroke-width="1" stroke="rgb(0,0,0)" stroke-dasharray="1,3" />
	<line x1="455" y1="150" x2="455" y2="20" stroke-width="1" stroke="rgb(0,0,0)" stroke-dasharray="1,3" />
	<line x1="470" y1="150" x2="470" y2="20" stroke-width="1" stroke="rgb(0,0,0)" stroke-dasharray="1,3" />
	<line x1="485" y1="150" x2="485" y2="20" stroke-width="1" stroke="rgb(0,0,0)" stroke-dasharray="1,3" />
	<line x1="500" y1="150" x2="500" y2="20" stroke-width="1" stroke="rgb(0,0,0)" stroke-dasharray="1,3" />
	<line x1="515" y1="150" x2="515" y2="20" stroke-width="1" stroke="rgb(0,0,0)" stroke-dasharray="1,3" />
	<line x1="530" y1="150" x2="530" y2="20" stroke-width="1" stroke="rgb(0,0,0)" stroke-dasharray="1,3" />
	<line x1="545" y1="150" x2="545" y2="20" stroke-width="1" stroke="rgb(0,0,0)" stroke-dasharray="1,3" />
	<line x1="560" y1="150" x2="560" y2="20" stroke-width="1" stroke="rgb(0,0,0)" stroke-dasharray="1,3" />
	<line x1="575" y1="150" x2="575" y2="20" stroke-width="1" stroke="rgb(0,0,0)" stroke-dasharray="1,3" />
	<line x1="590" y1="150" x2="590" y2="20" stroke-width="1" stroke="rgb(0,0,0)" stroke-dasharray="1,3" />
	<line x1="605" y1="150" x2="605" y2="20" stroke-width="1" stroke="rgb(0,0,0)" stroke-dasharray="1,3" />
	<line x1="620" y1="150" x2="620" y2="20" stroke-width="1" stroke="rgb(0,0,0)" stroke-dasharray="1,3" />
	<line x1="635" y1="150" x2="635" y2="20" stroke-width="1" stroke="rgb(0,0,0)" stroke-dasharray="1,3" />
	<line x1="650" y1="150" x2="650" y2="20" stroke-width="1" stroke="rgb(0,0,0)" stroke-dasharray="1,3" />
	<line x1="665" y1="150" x2="665" y2="20" stroke-width="1" stroke="rgb(0,0,0)" stroke-dasharray="1,3" />
	<line x1="680" y1="150" x2="680" y2="20" stroke-width="1" stroke="rgb(0,0,0)" stroke-dasharray="1,3" />
	<line x1="695" y1="150" x2="695" y2="20" stroke-width="1" stroke="rgb(0,0,0)" stroke-dasharray="1,3" />
	<line x1="710" y1="150" x2="710" y2="20" stroke-width="1" stroke="rgb(0,0,0)" stroke-dasharray="1,3" />
	<line x1="725" y1="150" x2="725" y2="20" stroke-width="1" stroke="rgb(0,0,0)" stroke-dasharray="1,3" />
	<line x1="740" y1="150" x2="740" y2="20" stroke-width="1" stroke="rgb(0,0,0)" stroke-dasharray="1,3" />
	<line x1="755" y1="150" x2="755" y2="20" stroke-width="1" stroke="rgb(0,0,0)" stroke-dasharray="1,3" />
	<line x1="770" y1="150" x2="770" y2="20" stroke-width="1" stroke="rgb(0,0,0)" stroke-dasharray="1,3" />
	<line x1="785" y1="150" x2="785" y2="20" stroke-width="1" stroke="rgb(0,0,0)" stroke-dasharray="1,3" />
	<line x1="800" y1="150" x2="800" y2="20" stroke-width="1" stroke="rgb(0,0,0)" stroke-dasharray="1,3" />
	<line x1="815" y1="150" x2="815" y2="20" stroke-width="1" stroke="rgb(0,0,0)" stroke-dasharray="1,3" />
	<line x1="830" y1="150" x2="830" y2="20" stroke-width="1" stroke="rgb(0,0,0)" stroke-dasharray="1,3" />
	<line x1="845" y1="150" x2="845" y2="20" stroke-width="1" stroke="rgb(0,0,0)" stroke-dasharray="1,3" />
	<line x1="860" y1="150" x2="860" y2="20" stroke-width="1" stroke="rgb(0,0,0)" stroke-dasharray="1,3" />
	<line x1="875" y1="150" x2="875" y2="20" stroke-width="1" stroke="rgb(0,0,0)" stroke-dasharray="1,3" />
	<line x1="890" y1="150" x2="890" y2="20" stroke-width="1" stroke="rgb(0,0,0)" stroke-dasharray="1,3" />
	<line x1="905" y1="150" x2="905" y2="20" stroke-width="1" stroke="rgb(0,0,0)" stroke-dasharray="1,3" />
	<line x1="920" y1="150" x2="920" y2="20" stroke-width="1" stroke="rgb(0,0,0)" stroke-dasharray="1,3" />
	<line x1="935" y1="150" x2="935" y2="20" stroke-width="1" stroke="rgb(0,0,0)" stroke-dasharray="1,3" />
	<line x1="950" y1="150" x2="950" y2="20" stroke-width="1" stroke="rgb(0,0,0)" stroke-dasharray="1,3" />
	<line x1="965" y1="150" x2="965" y2="20" stroke-width="1" stroke="rgb(0,0,0)" stroke-dasharray="1,3" />
	<line x1="980" y1="150" x2="980" y2="20" stroke-width="1" stroke="rgb(0,0,0)" stroke-dasharray="1,3" />
	<line x1="995" y1="150" x2="995" y2="20" stroke-width="1" stroke="rgb(0,0,0)" stroke-dasharray="1,3" />
	<line x1="1010" y1="150" x2="1010" y2="20" stroke-width="1" stroke="rgb(0,0,0)" stroke-dasharray="1,3" />
	<line x1="1025" y1="150" x2="1025" y2="20" stroke-width="1" stroke="rgb(0,0,0)" stroke-dasharray="1,3" />
	<line x1="1040" y1="150" x2="1040" y2="20" stroke-width="1" stroke="rgb(0,0,0)" stroke-dasharray="1,3" />
	<line x1="1055" y1="150" x2="1055" y2="20" stroke-width="1" stroke="rgb(0,0,0)" stroke-dasharray="1,3" />
	<line x1="1070" y1="150" x2="1070" y2="20" stroke-width="1" stroke="rgb(0,0,0)" stroke-dasharray="1,3" />
	<line x1="1085" y1="150" x2="1085" y2="20" stroke-width="1" stroke="rgb(0,0,0)" stroke-dasharray="1,3" />
	<line x1="1100" y1="150" x2="1100" y2="20" stroke-width="1" stroke="rgb(0,0,0)" stroke-dasharray="1,3" />
	<line x1="1115" y1="150" x2="1115" y2="20" stroke-width="1" stroke="rgb(0,0,0)" stroke-dasharray="1,3" />
	<line x1="1130" y1="150" x2="1130" y2="20" stroke-width="1" stroke="rgb(0,0,0)" stroke-dasharray="1,3" />
	<line x1="1145" y1="150" x2="1145" y2="20" stroke-width="1" stroke="rgb(0,0,0)" stroke-dasharray="1,3" />
	<line x1="1160" y1="150" x2="1160" y2="20" stroke-width="1" stroke="rgb(0,0,0)" stroke-dasharray="1,3" />
	<line x1="1175" y1="150" x2="1175" y2="20" stroke-width="1" stroke="rgb(0,0,0)" stroke-dasharray="1,3" />
	<line x1="1190" y1="150" x2="1190" y2="20" stroke-width="1" stroke="rgb(0,0,0)" stroke-dasharray="1,3" />
	<line x1="1205" y1="150" x2="1205" y2="20" stroke-width="1" stroke="rgb(0,0,0)" stroke-dasharray="1,3" />
	<line x1="1220" y1="150" x2="1220" y2="20" stroke-width="1" stroke="rgb(0,0,0)" stroke-dasharray="1,3" />
	<line x1="1235" y1="150" x2="1235" y2="20" stroke-width="1" stroke="rgb(0,0,0)" stroke-dasharray="1,3" />
	<line x1="1250" y1="150" x2="1250" y2="20" stroke-width="1" stroke="rgb(0,0,0)" stroke-dasharray="1,3" />
	<line x1="1265" y1="150" x2="1265" y2="20" stroke-width="1" stroke="rgb(0,0,0)" stroke-dasharray="1,3" />
	<line x1="1280" y1="150" x2="1280" y2="20" stroke-width="1" stroke="rgb(0,0,0)" stroke-dasharray="1,3" />
	<line x1="1295" y1="150" x2="1295" y2="20" stroke-width="1" stroke="rgb(0,0,0)" stroke-dasharray="1,3" />
	<line x1="1310" y1="150" x2="1310" y2="20" stroke-width="1" stroke="rgb(0,0,0)" stroke-dasharray="1,3" />
	<line x1="1325" y1="150" x2="1325" y2="20" stroke-width="1" stroke="rgb(0,0,0)" stroke-dasharray="1,3" />
	<line x1="1340" y1="150" x2="1340" y2="20" stroke-width="1" stroke="rgb(0,0,0)" stroke-dasharray="1,3" />
	<line x1="1355" y1="150" x2="1355" y2="20" stroke-width="1" stroke="rgb(0,0,0)" stroke-dasharray="1,3" />
	<line x1="1370" y1="150" x2="1370" y2="20" stroke-width="1" stroke="rgb(0,0,0)" stroke-dasharray="1,3" />
	<line x1="1385" y1="150" x2="1385" y2="20" stroke-width="1" stroke="rgb(0,0,0)" stroke-dasharray="1,3" />
	<line x1="1400" y1="150" x2="1400" y2="20" stroke-width="1" stroke="rgb(0,0,0)" stroke-dasharray="1,3" />
	<line x1="1415" y1="150" x2="1415" y2="20" stroke-width="1" stroke="rgb(0,0,0)" stroke-dasharray="1,3" />
	<line x1="1430" y1="150" x2="1430" y2="20" stroke-width="1" stroke="rgb(0,0,0)" stroke-dasharray="1,3" />
	<line x1="1445" y1="150" x2="1445" y2="20" stroke-width="1" stroke="rgb(0,0,0)" stroke-dasharray="1,3" />
	<line x1="1460" y1="150" x2="1460" y2="20" stroke-width="1" stroke="rgb(0,0,0)" stroke-dasharray="1,3" />
	<line x1="1475" y1="150" x2="1475" y2="20" stroke-width="1" stroke="rgb(0,0,0)" stroke-dasharray="1,3" />
	<line x1="1490" y1="150" x2="1490" y2="20" stroke-width="1" stroke="rgb(0,0,0)" stroke-dasharray="1,3" />
	<line x1="1505" y1="150" x2="1505" y2="20" stroke-width="1" stroke="rgb(0,0,0)" stroke-dasharray="1,3" />
	<line x1="1520" y1="150" x2="1520" y2="20" stroke-width="1" stroke="rgb(0,0,0)" stroke-dasharray="1,3" />
	<line x1="20" y1="116" x2="20" y2="95" stroke-width="1" stroke="rgb(0,0,0)" />
	<polygon points="20,120 23,109 17,109 " fill="rgb(0,0,0)" />
	<circle cx="770" cy="145" r="10" fill="none" stroke-width="1" stroke="rgb(0,0,0)" />
	<line x1="20" y1="41" x2="20" y2="20" stroke-width="1" stroke="rgb(0,0,0)" />
	<polygon points="20,45 23,34 17,34 " fill="rgb(0,0,0)" />
	<circle cx="1070" cy="70" r="10" fill="none" stroke-width="1" stroke="rgb(0,0,0)" />
	<rect x="20" y="120" width="150" height="25" fill="none" stroke-width="1" stroke="rgb(0,0,0)" />
	<rect x="170" y="120" width="150" height="25" fill="none" stroke-width="1" stroke="rgb(0,0,0)" />
	<rect x="320" y="45" width="150" height="25" fill="none" stroke-width="1" stroke="rgb(0,0,0)" />
	<rect x="470" y="120" width="150" height="25" fill="none" stroke-width="1" stroke="rgb(0,0,0)" />
	<rect x="620" y="45" width="150" height="25" fill="none" stroke-width="1" stroke="rgb(0,0,0)" />
	<line x1="770" y1="116" x2="770" y2="95" stroke-width="1" stroke="rgb(0,0,0)" />
	<polygon points="770,120 773,109 767,109 " fill="rgb(0,0,0)" />
	<circle cx="1520" cy="145" r="10" fill="none" stroke-width="1" stroke="rgb(0,0,0)" />
	<rect x="770" y="45" width="150" height="25" fill="none" stroke-width="1" stroke="rgb(0,0,0)" />
	<rect x="920" y="120" width="150" height="25" fill="none" stroke-width="1" stroke="rgb(0,0,0)" />
	<rect x="1070" y="120" width="150" height="25" fill="none" stroke-width="1" stroke="rgb(0,0,0)" />
	<rect x="1220" y="120" width="150" height="25" fill="none" stroke-width="1" stroke="rgb(0,0,0)" />
</svg>
