<?xml version="1.0" standalone="no" ?>
<!DOCTYPE svg PUBLIC "-//W3C//DTD SVG 1.1//EN" "http://www.w3.org/Graphics/SVG/1.1/DTD/svg11.dtd">
<svg width="9937px" height="162px" xmlns="http://www.w3.org/2000/svg" version="1.1" >
	<line x1="12" y1="150" x2="12" y2="12" stroke-width="2" stroke="rgb(0,0,0)" />
	<line x1="12" y1="150" x2="9925" y2="150" stroke-width="2" stroke="rgb(0,0,0)" />
	<polygon points="9925,150 9919,156 9919,144 " fill="rgb(0,0,0)" />
	<text x="9" y="160" fill="rgb(0,0,0)" font-size="12" font-family="Verdana" >0</text>
	<text x="150" y="160" fill="rgb(0,0,0)" font-size="12" font-family="Verdana" >10</text>
	<text x="300" y="160" fill="rgb(0,0,0)" font-size="12" font-family="Verdana" >20</text>
	<text x="450" y="160" fill="rgb(0,0,0)" font-size="12" font-family="Verdana" >30</text>
	<text x="600" y="160" fill="rgb(0,0,0)" font-size="12" font-family="Verdana" >40</text>
	<text x="750" y="160" fill="rgb(0,0,0)" font-size="12" font-family="Verdana" >50</text>
	<text x="900" y="160" fill="rgb(0,0,0)" font-size="12" font-family="Verdana" >60</text>
	<text x="1050" y="160" fill="rgb(0,0,0)" font-size="12" font-family="Verdana" >70</text>
	<text x="1200" y="160" fill="rgb(0,0,0)" font-size="12" font-family="Verdana" >80</text>
	<text x="1350" y="160" fill="rgb(0,0,0)" font-size="12" font-family="Verdana" >90</text>
	<text x="1500" y="160" fill="rgb(0,0,0)" font-size="12" font-family="Verdana" >100</text>
	<text x="1650" y="160" fill="rgb(0,0,0)" font-size="12" font-family="Verdana" >110</text>
	<text x="1800" y="160" fill="rgb(0,0,0)" font-size="12" font-family="Verdana" >120</text>
	<text x="1950" y="160" fill="rgb(0,0,0)" font-size="12" font-family="Verdana" >130</text>
	<text x="2100" y="160" fill="rgb(0,0,0)" font-size="12" font-family="Verdana" >140</text>
	<text x="2250" y="160" fill="rgb(0,0,0)" font-size="12" font-family="Verdana" >150</text>
	<text x="2400" y="160" fill="rgb(0,0,0)" font-size="12" font-family="Verdana" >160</text>
	<text x="2550" y="160" fill="rgb(0,0,0)" font-size="12" font-family="Verdana" >170</text>
	<text x="2700" y="160" fill="rgb(0,0,0)" font-size="12" font-family="Verdana" >180</text>
	<text x="2850" y="160" fill="rgb(0,0,0)" font-size="12" font-family="Verdana" >190</text>
	<text x="3000" y="160" fill="rgb(0,0,0)" font-size="12" font-family="Verdana" >200</text>
	<text x="3150" y="160" fill="rgb(0,0,0)" font-size="12" font-family="Verdana" >210</text>
	<text x="3300" y="160" fill="rgb(0,0,0)" font-size="12" font-family="Verdana" >220</text>
	<text x="3450" y="160" fill="rgb(0,0,0)" font-size="12" font-family="Verdana" >230</text>
	<text x="3600" y="160" fill="rgb(0,0,0)" font-size="12" font-family="Verdana" >240</text>
	<text x="3750" y="160" fill="rgb(0,0,0)" font-size="12" font-family="Verdana" >250</text>
	<text x="3900" y="160" fill="rgb(0,0,0)" font-size="12" font-family="Verdana" >260</text>
	<text x="4050" y="160" fill="rgb(0,0,0)" font-size="12" font-family="Verdana" >270</text>
	<text x="4200" y="160" fill="rgb(0,0,0)" font-size="12" font-family="Verdana" >280</text>
	<text x="4350" y="160" fill="rgb(0,0,0)" font-size="12" font-family="Verdana" >290</text>
	<text x="4500" y="160" fill="rgb(0,0,0)" font-size="12" font-family="Verdana" >300</text>
	<text x="4650" y="160" fill="rgb(0,0,0)" font-size="12" font-family="Verdana" >310</text>
	<text x="4800" y="160" fill="rgb(0,0,0)" font-size="12" font-family="Verdana" >320</text>
	<text x="4950" y="160" fill="rgb(0,0,0)" font-size="12" font-family="Verdana" >330</text>
	<text x="5100" y="160" fill="rgb(0,0,0)" font-size="12" font-family="Verdana" >340</text>
	<text x="5250" y="160" fill="rgb(0,0,0)" font-size="12" font-family="Verdana" >350</text>
	<text x="5400" y="160" fill="rgb(0,0,0)" font-size="12" font-family="Verdana" >360</text>
	<text x="5550" y="160" fill="rgb(0,0,0)" font-size="12" font-family="Verdana" >370</text>
	<text x="5700" y="160" fill="rgb(0,0,0)" font-size="12" font-family="Verdana" >380</text>
	<text x="5850" y="160" fill="rgb(0,0,0)" font-size="12" font-family="Verdana" >390</text>
	<text x="6000" y="160" fill="rgb(0,0,0)" font-size="12" font-family="Verdana" >400</text>
	<text x="6150" y="160" fill="rgb(0,0,0)" font-size="12" font-family="Verdana" >410</text>
	<text x="6300" y="160" fill="rgb(0,0,0)" font-size="12" font-family="Verdana" >420</text>
	<text x="6450" y="160" fill="rgb(0,0,0)" font-size="12" font-family="Verdana" >430</text>
	<text x="6600" y="160" fill="rgb(0,0,0)" font-size="12" font-family="Verdana" >440</text>
	<text x="6750" y="160" fill="rgb(0,0,0)" font-size="12" font-family="Verdana" >450</text>
	<text x="6900" y="160" fill="rgb(0,0,0)" font-size="12" font-family="Verdana" >460</text>
	<text x="7050" y="160" fill="rgb(0,0,0)" font-size="12" font-family="Verdana" >470</text>
	<text x="7200" y="160" fill="rgb(0,0,0)" font-size="12" font-family="Verdana" >480</text>
	<text x="7350" y="160" fill="rgb(0,0,0)" font-size="12" font-family="Verdana" >490</text>
	<text x="7500" y="160" fill="rgb(0,0,0)" font-size="12" font-family="Verdana" >500</text>
	<text x="7650" y="160" fill="rgb(0,0,0)" font-size="12" font-family="Verdana" >510</text>
	<text x="7800" y="160" fill="rgb(0,0,0)" font-size="12" font-family="Verdana" >520</text>
	<text x="7950" y="160" fill="rgb(0,0,0)" font-size="12" font-family="Verdana" >530</text>
	<text x="8100" y="160" fill="rgb(0,0,0)" font-size="12" font-family="Verdana" >540</text>
	<text x="8250" y="160" fill="rgb(0,0,0)" font-size="12" font-family="Verdana" >550</text>
	<text x="8400" y="160" fill="rgb(0,0,0)" font-size="12" font-family="Verdana" >560</text>
	<text x="8550" y="160" fill="rgb(0,0,0)" font-size="12" font-family="Verdana" >570</text>
	<text x="8700" y="160" fill="rgb(0,0,0)" font-size="12" font-family="Verdana" >580</text>
	<text x="8850" y="160" fill="rgb(0,0,0)" font-size="12" font-family="Verdana" >590</text>
	<text x="9000" y="160" fill="rgb(0,0,0)" font-size="12" font-family="Verdana" >600</text>
	<text x="9150" y="160" fill="rgb(0,0,0)" font-size="12" font-family="Verdana" >610</text>
	<text x="9300" y="160" fill="rgb(0,0,0)" font-size="12" font-family="Verdana" >620</text>
	<text x="9450" y="160" fill="rgb(0,0,0)" font-size="12" font-family="Verdana" >630</text>
	<text x="9600" y="160" fill="rgb(0,0,0)" font-size="12" font-family="Verdana" >640</text>
	<text x="9750" y="160" fill="rgb(0,0,0)" font-size="12" font-family="Verdana" >650</text>
	<text x="9900" y="160" fill="rgb(0,0,0)" font-size="12" font-family="Verdana" >660</text>
	<line x1="12" y1="137" x2="9925" y2="137" stroke-width="1" stroke="rgb(0,0,0)" />
	<text x="0" y="112" fill="rgb(0,0,0)" font-size="12" font-family="Verdana" >t0</text>
	<line x1="12" y1="87" x2="9925" y2="87" stroke-width="1" stroke="rgb(0,0,0)" />
	<line x1="12" y1="62" x2="9925" y2="62" stroke-width="1" stroke="rgb(0,0,0)" />
	<text x="0" y="37" fill="rgb(0,0,0)" font-size="12" font-family="Verdana" >t1</text>
	<line x1="12" y1="12" x2="9925" y2="12" stroke-width="1" stroke="rgb(0,0,0)" />
	<line x1="12" y1="112" x2="12" y2="87" stroke-width="2" stroke="rgb(0,0,0)" />
	<polygon points="12,112 15,105 9,105 " fill="rgb(0,0,0)" />
	<line x1="627" y1="37" x2="627" y2="12" stroke-width="2" stroke="rgb(0,0,0)" />
	<polygon points="627,37 630,30 624,30 " fill="rgb(0,0,0)" />
	<circle cx="12" cy="99" r="6" fill="transparent" stroke-width="1" stroke="rgb(0,0,0)" />
	<circle cx="267" cy="24" r="6" fill="transparent" stroke-width="1" stroke="rgb(0,0,0)" />
	<line x1="12" y1="-38" x2="12" y2="-63" stroke-width="2" stroke="rgb(0,0,0)" />
	<polygon points="12,-38 15,-45 9,-45 " fill="rgb(0,0,0)" />
	<line x1="87" y1="-38" x2="87" y2="-63" stroke-width="2" stroke="rgb(0,0,0)" />
	<polygon points="87,-38 90,-45 84,-45 " fill="rgb(0,0,0)" />
	<circle cx="162" cy="-51" r="6" fill="transparent" stroke-width="1" stroke="rgb(0,0,0)" />
	<line x1="237" y1="-38" x2="237" y2="-63" stroke-width="2" stroke="rgb(0,0,0)" />
	<polygon points="237,-38 240,-45 234,-45 " fill="rgb(0,0,0)" />
	<circle cx="327" cy="-126" r="6" fill="transparent" stroke-width="1" stroke="rgb(0,0,0)" />
	<line x1="327" y1="-188" x2="327" y2="-213" stroke-width="2" stroke="rgb(0,0,0)" />
	<polygon points="327,-188 330,-195 324,-195 " fill="rgb(0,0,0)" />
	<line x1="327" y1="-188" x2="327" y2="-213" stroke-width="2" stroke="rgb(0,0,0)" />
	<polygon points="327,-188 330,-195 324,-195 " fill="rgb(0,0,0)" />
</svg>
