<?xml version="1.0" standalone="no" ?>
<!DOCTYPE svg PUBLIC "-//W3C//DTD SVG 1.1//EN" "http://www.w3.org/Graphics/SVG/1.1/DTD/svg11.dtd">
<svg width="250px" height="300px" xmlns="http://www.w3.org/2000/svg" version="1.1" >
	<rect x="75" y="175" width="50" height="50" fill="rgb(253,253,253)" />
	<text x="90" y="205" fill="rgb(125,125,125)" font-size="12" font-family="Verdana" >0.0</text>
	<rect x="75" y="125" width="50" height="50" fill="rgb(254,254,254)" />
	<text x="90" y="155" fill="rgb(126,126,126)" font-size="12" font-family="Verdana" >0.0</text>
	<rect x="75" y="75" width="50" height="50" fill="rgb(253,253,253)" />
	<text x="90" y="105" fill="rgb(125,125,125)" font-size="12" font-family="Verdana" >0.0</text>
	<rect x="125" y="175" width="50" height="50" fill="rgb(253,253,253)" />
	<text x="140" y="205" fill="rgb(125,125,125)" font-size="12" font-family="Verdana" >0.0</text>
	<rect x="125" y="125" width="50" height="50" fill="rgb(253,253,253)" />
	<text x="140" y="155" fill="rgb(125,125,125)" font-size="12" font-family="Verdana" >0.0</text>
	<rect x="125" y="75" width="50" height="50" fill="rgb(253,253,253)" />
	<text x="140" y="105" fill="rgb(125,125,125)" font-size="12" font-family="Verdana" >0.0</text>
	<rect x="0" y="270" width="30" height="30" fill="rgb(255,255,255)" />
	<text x="5" y="290" fill="rgb(127,127,127)" font-size="12" font-family="Verdana" >0.0</text>
	<rect x="30" y="270" width="30" height="30" fill="rgb(203,203,203)" />
	<text x="35" y="290" fill="rgb(75,75,75)" font-size="12" font-family="Verdana" >0.2</text>
	<rect x="60" y="270" width="30" height="30" fill="rgb(152,152,152)" />
	<text x="65" y="290" fill="rgb(24,24,24)" font-size="12" font-family="Verdana" >0.4</text>
	<rect x="90" y="270" width="30" height="30" fill="rgb(101,101,101)" />
	<text x="95" y="290" fill="rgb(229,229,229)" font-size="12" font-family="Verdana" >0.6</text>
	<rect x="120" y="270" width="30" height="30" fill="rgb(50,50,50)" />
	<text x="125" y="290" fill="rgb(178,178,178)" font-size="12" font-family="Verdana" >0.8</text>
	<rect x="150" y="270" width="30" height="30" fill="rgb(0,0,0)" />
	<text x="155" y="290" fill="rgb(128,128,128)" font-size="12" font-family="Verdana" >1.0</text>
	<line x1="74" y1="226" x2="174" y2="226" stroke-width="1" stroke="rgb(0,0,0)" />
	<line x1="74" y1="226" x2="74" y2="76" stroke-width="1" stroke="rgb(0,0,0)" />
	<polygon points="194,226 174,221 174,231 " fill="rgb(0,0,0)" />
	<polygon points="74,56 79,76 69,76 " fill="rgb(0,0,0)" />
	<text x="89" y="243.5" fill="rgb(0,0,0)" font-size="12" font-family="Verdana" >0.5</text>
	<text x="139" y="243.5" fill="rgb(0,0,0)" font-size="12" font-family="Verdana" >0.8</text>
	<text x="189" y="243.5" fill="rgb(0,0,0)" font-size="12" font-family="Verdana" >u</text>
	<text x="51.5" y="206" fill="rgb(0,0,0)" font-size="12" font-family="Verdana" >5</text>
	<text x="51.5" y="156" fill="rgb(0,0,0)" font-size="12" font-family="Verdana" >7</text>
	<text x="51.5" y="106" fill="rgb(0,0,0)" font-size="12" font-family="Verdana" >9</text>
	<text x="51.5" y="56" fill="rgb(0,0,0)" font-size="12" font-family="Verdana" >d</text>
</svg>
