<?xml version="1.0" standalone="no" ?>
<!DOCTYPE svg PUBLIC "-//W3C//DTD SVG 1.1//EN" "http://www.w3.org/Graphics/SVG/1.1/DTD/svg11.dtd">
<svg width="650px" height="650px" xmlns="http://www.w3.org/2000/svg" version="1.1" >
	<rect x="75" y="525" width="50" height="50" fill="rgb(255,255,255)" />
	<text x="90" y="555" fill="rgb(127,127,127)" font-size="12" font-family="Verdana" >1.0</text>
	<rect x="75" y="475" width="50" height="50" fill="rgb(204,204,204)" />
	<text x="90" y="505" fill="rgb(76,76,76)" font-size="12" font-family="Verdana" >0.8</text>
	<rect x="75" y="425" width="50" height="50" fill="rgb(255,255,255)" />
	<text x="90" y="455" fill="rgb(127,127,127)" font-size="12" font-family="Verdana" >1.0</text>
	<rect x="75" y="375" width="50" height="50" fill="rgb(204,204,204)" />
	<text x="90" y="405" fill="rgb(76,76,76)" font-size="12" font-family="Verdana" >0.8</text>
	<rect x="75" y="325" width="50" height="50" fill="rgb(153,153,153)" />
	<text x="90" y="355" fill="rgb(25,25,25)" font-size="12" font-family="Verdana" >0.6</text>
	<rect x="75" y="275" width="50" height="50" fill="rgb(255,255,255)" />
	<text x="90" y="305" fill="rgb(127,127,127)" font-size="12" font-family="Verdana" >1.0</text>
	<rect x="75" y="225" width="50" height="50" fill="rgb(255,255,255)" />
	<text x="90" y="255" fill="rgb(127,127,127)" font-size="12" font-family="Verdana" >1.0</text>
	<rect x="75" y="175" width="50" height="50" fill="rgb(255,255,255)" />
	<text x="90" y="205" fill="rgb(127,127,127)" font-size="12" font-family="Verdana" >1.0</text>
	<rect x="75" y="125" width="50" height="50" fill="rgb(204,204,204)" />
	<text x="90" y="155" fill="rgb(76,76,76)" font-size="12" font-family="Verdana" >0.8</text>
	<rect x="75" y="75" width="50" height="50" fill="rgb(255,255,255)" />
	<text x="90" y="105" fill="rgb(127,127,127)" font-size="12" font-family="Verdana" >1.0</text>
	<rect x="125" y="525" width="50" height="50" fill="rgb(204,204,204)" />
	<text x="140" y="555" fill="rgb(76,76,76)" font-size="12" font-family="Verdana" >0.8</text>
	<rect x="125" y="475" width="50" height="50" fill="rgb(255,255,255)" />
	<text x="140" y="505" fill="rgb(127,127,127)" font-size="12" font-family="Verdana" >1.0</text>
	<rect x="125" y="425" width="50" height="50" fill="rgb(255,255,255)" />
	<text x="140" y="455" fill="rgb(127,127,127)" font-size="12" font-family="Verdana" >1.0</text>
	<rect x="125" y="375" width="50" height="50" fill="rgb(255,255,255)" />
	<text x="140" y="405" fill="rgb(127,127,127)" font-size="12" font-family="Verdana" >1.0</text>
	<rect x="125" y="325" width="50" height="50" fill="rgb(255,255,255)" />
	<text x="140" y="355" fill="rgb(127,127,127)" font-size="12" font-family="Verdana" >1.0</text>
	<rect x="125" y="275" width="50" height="50" fill="rgb(204,204,204)" />
	<text x="140" y="305" fill="rgb(76,76,76)" font-size="12" font-family="Verdana" >0.8</text>
	<rect x="125" y="225" width="50" height="50" fill="rgb(255,255,255)" />
	<text x="140" y="255" fill="rgb(127,127,127)" font-size="12" font-family="Verdana" >1.0</text>
	<rect x="125" y="175" width="50" height="50" fill="rgb(255,255,255)" />
	<text x="140" y="205" fill="rgb(127,127,127)" font-size="12" font-family="Verdana" >1.0</text>
	<rect x="125" y="125" width="50" height="50" fill="rgb(255,255,255)" />
	<text x="140" y="155" fill="rgb(127,127,127)" font-size="12" font-family="Verdana" >1.0</text>
	<rect x="125" y="75" width="50" height="50" fill="rgb(153,153,153)" />
	<text x="140" y="105" fill="rgb(25,25,25)" font-size="12" font-family="Verdana" >0.6</text>
	<rect x="175" y="525" width="50" height="50" fill="rgb(204,204,204)" />
	<text x="190" y="555" fill="rgb(76,76,76)" font-size="12" font-family="Verdana" >0.8</text>
	<rect x="175" y="475" width="50" height="50" fill="rgb(204,204,204)" />
	<text x="190" y="505" fill="rgb(76,76,76)" font-size="12" font-family="Verdana" >0.8</text>
	<rect x="175" y="425" width="50" height="50" fill="rgb(255,255,255)" />
	<text x="190" y="455" fill="rgb(127,127,127)" font-size="12" font-family="Verdana" >1.0</text>
	<rect x="175" y="375" width="50" height="50" fill="rgb(255,255,255)" />
	<text x="190" y="405" fill="rgb(127,127,127)" font-size="12" font-family="Verdana" >1.0</text>
	<rect x="175" y="325" width="50" height="50" fill="rgb(153,153,153)" />
	<text x="190" y="355" fill="rgb(25,25,25)" font-size="12" font-family="Verdana" >0.6</text>
	<rect x="175" y="275" width="50" height="50" fill="rgb(102,102,102)" />
	<text x="190" y="305" fill="rgb(230,230,230)" font-size="12" font-family="Verdana" >0.4</text>
	<rect x="175" y="225" width="50" height="50" fill="rgb(204,204,204)" />
	<text x="190" y="255" fill="rgb(76,76,76)" font-size="12" font-family="Verdana" >0.8</text>
	<rect x="175" y="175" width="50" height="50" fill="rgb(255,255,255)" />
	<text x="190" y="205" fill="rgb(127,127,127)" font-size="12" font-family="Verdana" >1.0</text>
	<rect x="175" y="125" width="50" height="50" fill="rgb(255,255,255)" />
	<text x="190" y="155" fill="rgb(127,127,127)" font-size="12" font-family="Verdana" >1.0</text>
	<rect x="175" y="75" width="50" height="50" fill="rgb(153,153,153)" />
	<text x="190" y="105" fill="rgb(25,25,25)" font-size="12" font-family="Verdana" >0.6</text>
	<rect x="225" y="525" width="50" height="50" fill="rgb(255,255,255)" />
	<text x="240" y="555" fill="rgb(127,127,127)" font-size="12" font-family="Verdana" >1.0</text>
	<rect x="225" y="475" width="50" height="50" fill="rgb(255,255,255)" />
	<text x="240" y="505" fill="rgb(127,127,127)" font-size="12" font-family="Verdana" >1.0</text>
	<rect x="225" y="425" width="50" height="50" fill="rgb(255,255,255)" />
	<text x="240" y="455" fill="rgb(127,127,127)" font-size="12" font-family="Verdana" >1.0</text>
	<rect x="225" y="375" width="50" height="50" fill="rgb(255,255,255)" />
	<text x="240" y="405" fill="rgb(127,127,127)" font-size="12" font-family="Verdana" >1.0</text>
	<rect x="225" y="325" width="50" height="50" fill="rgb(255,255,255)" />
	<text x="240" y="355" fill="rgb(127,127,127)" font-size="12" font-family="Verdana" >1.0</text>
	<rect x="225" y="275" width="50" height="50" fill="rgb(204,204,204)" />
	<text x="240" y="305" fill="rgb(76,76,76)" font-size="12" font-family="Verdana" >0.8</text>
	<rect x="225" y="225" width="50" height="50" fill="rgb(255,255,255)" />
	<text x="240" y="255" fill="rgb(127,127,127)" font-size="12" font-family="Verdana" >1.0</text>
	<rect x="225" y="175" width="50" height="50" fill="rgb(204,204,204)" />
	<text x="240" y="205" fill="rgb(76,76,76)" font-size="12" font-family="Verdana" >0.8</text>
	<rect x="225" y="125" width="50" height="50" fill="rgb(204,204,204)" />
	<text x="240" y="155" fill="rgb(76,76,76)" font-size="12" font-family="Verdana" >0.8</text>
	<rect x="225" y="75" width="50" height="50" fill="rgb(204,204,204)" />
	<text x="240" y="105" fill="rgb(76,76,76)" font-size="12" font-family="Verdana" >0.8</text>
	<rect x="275" y="525" width="50" height="50" fill="rgb(255,255,255)" />
	<text x="290" y="555" fill="rgb(127,127,127)" font-size="12" font-family="Verdana" >1.0</text>
	<rect x="275" y="475" width="50" height="50" fill="rgb(204,204,204)" />
	<text x="290" y="505" fill="rgb(76,76,76)" font-size="12" font-family="Verdana" >0.8</text>
	<rect x="275" y="425" width="50" height="50" fill="rgb(204,204,204)" />
	<text x="290" y="455" fill="rgb(76,76,76)" font-size="12" font-family="Verdana" >0.8</text>
	<rect x="275" y="375" width="50" height="50" fill="rgb(204,204,204)" />
	<text x="290" y="405" fill="rgb(76,76,76)" font-size="12" font-family="Verdana" >0.8</text>
	<rect x="275" y="325" width="50" height="50" fill="rgb(204,204,204)" />
	<text x="290" y="355" fill="rgb(76,76,76)" font-size="12" font-family="Verdana" >0.8</text>
	<rect x="275" y="275" width="50" height="50" fill="rgb(204,204,204)" />
	<text x="290" y="305" fill="rgb(76,76,76)" font-size="12" font-family="Verdana" >0.8</text>
	<rect x="275" y="225" width="50" height="50" fill="rgb(204,204,204)" />
	<text x="290" y="255" fill="rgb(76,76,76)" font-size="12" font-family="Verdana" >0.8</text>
	<rect x="275" y="175" width="50" height="50" fill="rgb(255,255,255)" />
	<text x="290" y="205" fill="rgb(127,127,127)" font-size="12" font-family="Verdana" >1.0</text>
	<rect x="275" y="125" width="50" height="50" fill="rgb(102,102,102)" />
	<text x="290" y="155" fill="rgb(230,230,230)" font-size="12" font-family="Verdana" >0.4</text>
	<rect x="275" y="75" width="50" height="50" fill="rgb(153,153,153)" />
	<text x="290" y="105" fill="rgb(25,25,25)" font-size="12" font-family="Verdana" >0.6</text>
	<rect x="325" y="525" width="50" height="50" fill="rgb(204,204,204)" />
	<text x="340" y="555" fill="rgb(76,76,76)" font-size="12" font-family="Verdana" >0.8</text>
	<rect x="325" y="475" width="50" height="50" fill="rgb(204,204,204)" />
	<text x="340" y="505" fill="rgb(76,76,76)" font-size="12" font-family="Verdana" >0.8</text>
	<rect x="325" y="425" width="50" height="50" fill="rgb(153,153,153)" />
	<text x="340" y="455" fill="rgb(25,25,25)" font-size="12" font-family="Verdana" >0.6</text>
	<rect x="325" y="375" width="50" height="50" fill="rgb(153,153,153)" />
	<text x="340" y="405" fill="rgb(25,25,25)" font-size="12" font-family="Verdana" >0.6</text>
	<rect x="325" y="325" width="50" height="50" fill="rgb(153,153,153)" />
	<text x="340" y="355" fill="rgb(25,25,25)" font-size="12" font-family="Verdana" >0.6</text>
	<rect x="325" y="275" width="50" height="50" fill="rgb(102,102,102)" />
	<text x="340" y="305" fill="rgb(230,230,230)" font-size="12" font-family="Verdana" >0.4</text>
	<rect x="325" y="225" width="50" height="50" fill="rgb(153,153,153)" />
	<text x="340" y="255" fill="rgb(25,25,25)" font-size="12" font-family="Verdana" >0.6</text>
	<rect x="325" y="175" width="50" height="50" fill="rgb(153,153,153)" />
	<text x="340" y="205" fill="rgb(25,25,25)" font-size="12" font-family="Verdana" >0.6</text>
	<rect x="325" y="125" width="50" height="50" fill="rgb(255,255,255)" />
	<text x="340" y="155" fill="rgb(127,127,127)" font-size="12" font-family="Verdana" >1.0</text>
	<rect x="325" y="75" width="50" height="50" fill="rgb(153,153,153)" />
	<text x="340" y="105" fill="rgb(25,25,25)" font-size="12" font-family="Verdana" >0.6</text>
	<rect x="375" y="525" width="50" height="50" fill="rgb(255,255,255)" />
	<text x="390" y="555" fill="rgb(127,127,127)" font-size="12" font-family="Verdana" >1.0</text>
	<rect x="375" y="475" width="50" height="50" fill="rgb(255,255,255)" />
	<text x="390" y="505" fill="rgb(127,127,127)" font-size="12" font-family="Verdana" >1.0</text>
	<rect x="375" y="425" width="50" height="50" fill="rgb(255,255,255)" />
	<text x="390" y="455" fill="rgb(127,127,127)" font-size="12" font-family="Verdana" >1.0</text>
	<rect x="375" y="375" width="50" height="50" fill="rgb(204,204,204)" />
	<text x="390" y="405" fill="rgb(76,76,76)" font-size="12" font-family="Verdana" >0.8</text>
	<rect x="375" y="325" width="50" height="50" fill="rgb(153,153,153)" />
	<text x="390" y="355" fill="rgb(25,25,25)" font-size="12" font-family="Verdana" >0.6</text>
	<rect x="375" y="275" width="50" height="50" fill="rgb(153,153,153)" />
	<text x="390" y="305" fill="rgb(25,25,25)" font-size="12" font-family="Verdana" >0.6</text>
	<rect x="375" y="225" width="50" height="50" fill="rgb(255,255,255)" />
	<text x="390" y="255" fill="rgb(127,127,127)" font-size="12" font-family="Verdana" >1.0</text>
	<rect x="375" y="175" width="50" height="50" fill="rgb(153,153,153)" />
	<text x="390" y="205" fill="rgb(25,25,25)" font-size="12" font-family="Verdana" >0.6</text>
	<rect x="375" y="125" width="50" height="50" fill="rgb(204,204,204)" />
	<text x="390" y="155" fill="rgb(76,76,76)" font-size="12" font-family="Verdana" >0.8</text>
	<rect x="375" y="75" width="50" height="50" fill="rgb(153,153,153)" />
	<text x="390" y="105" fill="rgb(25,25,25)" font-size="12" font-family="Verdana" >0.6</text>
	<rect x="425" y="525" width="50" height="50" fill="rgb(153,153,153)" />
	<text x="440" y="555" fill="rgb(25,25,25)" font-size="12" font-family="Verdana" >0.6</text>
	<rect x="425" y="475" width="50" height="50" fill="rgb(51,51,51)" />
	<text x="440" y="505" fill="rgb(179,179,179)" font-size="12" font-family="Verdana" >0.2</text>
	<rect x="425" y="425" width="50" height="50" fill="rgb(51,51,51)" />
	<text x="440" y="455" fill="rgb(179,179,179)" font-size="12" font-family="Verdana" >0.2</text>
	<rect x="425" y="375" width="50" height="50" fill="rgb(153,153,153)" />
	<text x="440" y="405" fill="rgb(25,25,25)" font-size="12" font-family="Verdana" >0.6</text>
	<rect x="425" y="325" width="50" height="50" fill="rgb(204,204,204)" />
	<text x="440" y="355" fill="rgb(76,76,76)" font-size="12" font-family="Verdana" >0.8</text>
	<rect x="425" y="275" width="50" height="50" fill="rgb(153,153,153)" />
	<text x="440" y="305" fill="rgb(25,25,25)" font-size="12" font-family="Verdana" >0.6</text>
	<rect x="425" y="225" width="50" height="50" fill="rgb(153,153,153)" />
	<text x="440" y="255" fill="rgb(25,25,25)" font-size="12" font-family="Verdana" >0.6</text>
	<rect x="425" y="175" width="50" height="50" fill="rgb(204,204,204)" />
	<text x="440" y="205" fill="rgb(76,76,76)" font-size="12" font-family="Verdana" >0.8</text>
	<rect x="425" y="125" width="50" height="50" fill="rgb(153,153,153)" />
	<text x="440" y="155" fill="rgb(25,25,25)" font-size="12" font-family="Verdana" >0.6</text>
	<rect x="425" y="75" width="50" height="50" fill="rgb(153,153,153)" />
	<text x="440" y="105" fill="rgb(25,25,25)" font-size="12" font-family="Verdana" >0.6</text>
	<rect x="475" y="525" width="50" height="50" fill="rgb(204,204,204)" />
	<text x="490" y="555" fill="rgb(76,76,76)" font-size="12" font-family="Verdana" >0.8</text>
	<rect x="475" y="475" width="50" height="50" fill="rgb(153,153,153)" />
	<text x="490" y="505" fill="rgb(25,25,25)" font-size="12" font-family="Verdana" >0.6</text>
	<rect x="475" y="425" width="50" height="50" fill="rgb(153,153,153)" />
	<text x="490" y="455" fill="rgb(25,25,25)" font-size="12" font-family="Verdana" >0.6</text>
	<rect x="475" y="375" width="50" height="50" fill="rgb(102,102,102)" />
	<text x="490" y="405" fill="rgb(230,230,230)" font-size="12" font-family="Verdana" >0.4</text>
	<rect x="475" y="325" width="50" height="50" fill="rgb(153,153,153)" />
	<text x="490" y="355" fill="rgb(25,25,25)" font-size="12" font-family="Verdana" >0.6</text>
	<rect x="475" y="275" width="50" height="50" fill="rgb(51,51,51)" />
	<text x="490" y="305" fill="rgb(179,179,179)" font-size="12" font-family="Verdana" >0.2</text>
	<rect x="475" y="225" width="50" height="50" fill="rgb(153,153,153)" />
	<text x="490" y="255" fill="rgb(25,25,25)" font-size="12" font-family="Verdana" >0.6</text>
	<rect x="475" y="175" width="50" height="50" fill="rgb(102,102,102)" />
	<text x="490" y="205" fill="rgb(230,230,230)" font-size="12" font-family="Verdana" >0.4</text>
	<rect x="475" y="125" width="50" height="50" fill="rgb(102,102,102)" />
	<text x="490" y="155" fill="rgb(230,230,230)" font-size="12" font-family="Verdana" >0.4</text>
	<rect x="475" y="75" width="50" height="50" fill="rgb(153,153,153)" />
	<text x="490" y="105" fill="rgb(25,25,25)" font-size="12" font-family="Verdana" >0.6</text>
	<rect x="525" y="525" width="50" height="50" fill="rgb(102,102,102)" />
	<text x="540" y="555" fill="rgb(230,230,230)" font-size="12" font-family="Verdana" >0.4</text>
	<rect x="525" y="475" width="50" height="50" fill="rgb(0,0,0)" />
	<text x="540" y="505" fill="rgb(128,128,128)" font-size="12" font-family="Verdana" >0.0</text>
	<rect x="525" y="425" width="50" height="50" fill="rgb(0,0,0)" />
	<text x="540" y="455" fill="rgb(128,128,128)" font-size="12" font-family="Verdana" >0.0</text>
	<rect x="525" y="375" width="50" height="50" fill="rgb(102,102,102)" />
	<text x="540" y="405" fill="rgb(230,230,230)" font-size="12" font-family="Verdana" >0.4</text>
	<rect x="525" y="325" width="50" height="50" fill="rgb(51,51,51)" />
	<text x="540" y="355" fill="rgb(179,179,179)" font-size="12" font-family="Verdana" >0.2</text>
	<rect x="525" y="275" width="50" height="50" fill="rgb(0,0,0)" />
	<text x="540" y="305" fill="rgb(128,128,128)" font-size="12" font-family="Verdana" >0.0</text>
	<rect x="525" y="225" width="50" height="50" fill="rgb(51,51,51)" />
	<text x="540" y="255" fill="rgb(179,179,179)" font-size="12" font-family="Verdana" >0.2</text>
	<rect x="525" y="175" width="50" height="50" fill="rgb(0,0,0)" />
	<text x="540" y="205" fill="rgb(128,128,128)" font-size="12" font-family="Verdana" >0.0</text>
	<rect x="525" y="125" width="50" height="50" fill="rgb(51,51,51)" />
	<text x="540" y="155" fill="rgb(179,179,179)" font-size="12" font-family="Verdana" >0.2</text>
	<rect x="525" y="75" width="50" height="50" fill="rgb(51,51,51)" />
	<text x="540" y="105" fill="rgb(179,179,179)" font-size="12" font-family="Verdana" >0.2</text>
	<rect x="0" y="620" width="30" height="30" fill="rgb(0,0,0)" />
	<text x="5" y="640" fill="rgb(128,128,128)" font-size="12" font-family="Verdana" >0.0</text>
	<rect x="30" y="620" width="30" height="30" fill="rgb(51,51,51)" />
	<text x="35" y="640" fill="rgb(179,179,179)" font-size="12" font-family="Verdana" >0.2</text>
	<rect x="60" y="620" width="30" height="30" fill="rgb(102,102,102)" />
	<text x="65" y="640" fill="rgb(230,230,230)" font-size="12" font-family="Verdana" >0.4</text>
	<rect x="90" y="620" width="30" height="30" fill="rgb(153,153,153)" />
	<text x="95" y="640" fill="rgb(25,25,25)" font-size="12" font-family="Verdana" >0.6</text>
	<rect x="120" y="620" width="30" height="30" fill="rgb(204,204,204)" />
	<text x="125" y="640" fill="rgb(76,76,76)" font-size="12" font-family="Verdana" >0.8</text>
	<rect x="150" y="620" width="30" height="30" fill="rgb(255,255,255)" />
	<text x="155" y="640" fill="rgb(127,127,127)" font-size="12" font-family="Verdana" >1.0</text>
	<line x1="75" y1="575" x2="575" y2="575" stroke-width="1" stroke="rgb(0,0,0)" />
	<line x1="75" y1="575" x2="75" y2="75" stroke-width="1" stroke="rgb(0,0,0)" />
	<polygon points="595,575 575,570 575,580 " fill="rgb(0,0,0)" />
	<polygon points="75,55 80,75 70,75 " fill="rgb(0,0,0)" />
	<text x="90" y="592.5" fill="rgb(0,0,0)" font-size="12" font-family="Verdana" >0.1</text>
	<text x="140" y="592.5" fill="rgb(0,0,0)" font-size="12" font-family="Verdana" >0.2</text>
	<text x="190" y="592.5" fill="rgb(0,0,0)" font-size="12" font-family="Verdana" >0.3</text>
	<text x="240" y="592.5" fill="rgb(0,0,0)" font-size="12" font-family="Verdana" >0.4</text>
	<text x="290" y="592.5" fill="rgb(0,0,0)" font-size="12" font-family="Verdana" >0.5</text>
	<text x="340" y="592.5" fill="rgb(0,0,0)" font-size="12" font-family="Verdana" >0.6</text>
	<text x="390" y="592.5" fill="rgb(0,0,0)" font-size="12" font-family="Verdana" >0.7</text>
	<text x="440" y="592.5" fill="rgb(0,0,0)" font-size="12" font-family="Verdana" >0.8</text>
	<text x="490" y="592.5" fill="rgb(0,0,0)" font-size="12" font-family="Verdana" >0.9</text>
	<text x="540" y="592.5" fill="rgb(0,0,0)" font-size="12" font-family="Verdana" >1.0</text>
	<text x="590" y="592.5" fill="rgb(0,0,0)" font-size="12" font-family="Verdana" >u</text>
	<text x="52.5" y="555" fill="rgb(0,0,0)" font-size="12" font-family="Verdana" >1</text>
	<text x="52.5" y="505" fill="rgb(0,0,0)" font-size="12" font-family="Verdana" >2</text>
	<text x="52.5" y="455" fill="rgb(0,0,0)" font-size="12" font-family="Verdana" >3</text>
	<text x="52.5" y="405" fill="rgb(0,0,0)" font-size="12" font-family="Verdana" >4</text>
	<text x="52.5" y="355" fill="rgb(0,0,0)" font-size="12" font-family="Verdana" >5</text>
	<text x="52.5" y="305" fill="rgb(0,0,0)" font-size="12" font-family="Verdana" >6</text>
	<text x="52.5" y="255" fill="rgb(0,0,0)" font-size="12" font-family="Verdana" >7</text>
	<text x="52.5" y="205" fill="rgb(0,0,0)" font-size="12" font-family="Verdana" >8</text>
	<text x="52.5" y="155" fill="rgb(0,0,0)" font-size="12" font-family="Verdana" >9</text>
	<text x="52.5" y="105" fill="rgb(0,0,0)" font-size="12" font-family="Verdana" >10</text>
	<text x="52.5" y="55" fill="rgb(0,0,0)" font-size="12" font-family="Verdana" >d</text>
</svg>
