<?xml version="1.0" standalone="no" ?>
<!DOCTYPE svg PUBLIC "-//W3C//DTD SVG 1.1//EN" "http://www.w3.org/Graphics/SVG/1.1/DTD/svg11.dtd">
<svg width="300px" height="300px" xmlns="http://www.w3.org/2000/svg" version="1.1" >
	<rect x="75" y="175" width="50" height="50" fill="rgb(2,2,2)" />
	<text x="86" y="205" fill="rgb(130,130,130)" font-size="12" font-family="Verdana" >0.99</text>
	<rect x="75" y="125" width="50" height="50" fill="rgb(25,25,25)" />
	<text x="86" y="155" fill="rgb(153,153,153)" font-size="12" font-family="Verdana" >0.90</text>
	<rect x="75" y="75" width="50" height="50" fill="rgb(38,38,38)" />
	<text x="86" y="105" fill="rgb(166,166,166)" font-size="12" font-family="Verdana" >0.85</text>
	<rect x="125" y="175" width="50" height="50" fill="rgb(33,33,33)" />
	<text x="136" y="205" fill="rgb(161,161,161)" font-size="12" font-family="Verdana" >0.87</text>
	<rect x="125" y="125" width="50" height="50" fill="rgb(30,30,30)" />
	<text x="136" y="155" fill="rgb(158,158,158)" font-size="12" font-family="Verdana" >0.88</text>
	<rect x="125" y="75" width="50" height="50" fill="rgb(84,84,84)" />
	<text x="136" y="105" fill="rgb(212,212,212)" font-size="12" font-family="Verdana" >0.67</text>
	<rect x="175" y="175" width="50" height="50" fill="rgb(114,114,114)" />
	<text x="186" y="205" fill="rgb(242,242,242)" font-size="12" font-family="Verdana" >0.55</text>
	<rect x="175" y="125" width="50" height="50" fill="rgb(158,158,158)" />
	<text x="186" y="155" fill="rgb(30,30,30)" font-size="12" font-family="Verdana" >0.38</text>
	<rect x="175" y="75" width="50" height="50" fill="rgb(165,165,165)" />
	<text x="186" y="105" fill="rgb(37,37,37)" font-size="12" font-family="Verdana" >0.35</text>
	<rect x="0" y="270" width="30" height="30" fill="rgb(255,255,255)" />
	<text x="1" y="290" fill="rgb(127,127,127)" font-size="12" font-family="Verdana" >0.00</text>
	<rect x="30" y="270" width="30" height="30" fill="rgb(203,203,203)" />
	<text x="31" y="290" fill="rgb(75,75,75)" font-size="12" font-family="Verdana" >0.20</text>
	<rect x="60" y="270" width="30" height="30" fill="rgb(152,152,152)" />
	<text x="61" y="290" fill="rgb(24,24,24)" font-size="12" font-family="Verdana" >0.40</text>
	<rect x="90" y="270" width="30" height="30" fill="rgb(101,101,101)" />
	<text x="91" y="290" fill="rgb(229,229,229)" font-size="12" font-family="Verdana" >0.60</text>
	<rect x="120" y="270" width="30" height="30" fill="rgb(50,50,50)" />
	<text x="121" y="290" fill="rgb(178,178,178)" font-size="12" font-family="Verdana" >0.80</text>
	<rect x="150" y="270" width="30" height="30" fill="rgb(0,0,0)" />
	<text x="151" y="290" fill="rgb(128,128,128)" font-size="12" font-family="Verdana" >1.00</text>
	<line x1="75" y1="225" x2="225" y2="225" stroke-width="1" stroke="rgb(0,0,0)" />
	<line x1="75" y1="225" x2="75" y2="75" stroke-width="1" stroke="rgb(0,0,0)" />
	<polygon points="245,225 225,220 225,230 " fill="rgb(0,0,0)" />
	<polygon points="75,55 80,75 70,75 " fill="rgb(0,0,0)" />
	<text x="86" y="242.5" fill="rgb(0,0,0)" font-size="12" font-family="Verdana" >0.30</text>
	<text x="136" y="242.5" fill="rgb(0,0,0)" font-size="12" font-family="Verdana" >0.60</text>
	<text x="186" y="242.5" fill="rgb(0,0,0)" font-size="12" font-family="Verdana" >0.90</text>
	<text x="236" y="242.5" fill="rgb(0,0,0)" font-size="12" font-family="Verdana" >u</text>
	<text x="48.5" y="205" fill="rgb(0,0,0)" font-size="12" font-family="Verdana" >1</text>
	<text x="48.5" y="155" fill="rgb(0,0,0)" font-size="12" font-family="Verdana" >5</text>
	<text x="48.5" y="105" fill="rgb(0,0,0)" font-size="12" font-family="Verdana" >10</text>
	<text x="48.5" y="55" fill="rgb(0,0,0)" font-size="12" font-family="Verdana" >d</text>
</svg>
